<svg xmlns="http://www.w3.org/2000/svg" width="256" height="256" viewBox="0 0 100 100"><rect width="100" height="100" rx="20" fill="#05a3ad"></rect><path d="M27.20 49.67L27.20 49.67Q27.20 46.66 26.29 44.52Q25.37 42.39 23.80 41.02Q22.22 39.66 20.13 39.03Q18.04 38.39 15.64 38.39L15.64 38.39Q14.14 38.39 13.03 38.49Q11.93 38.58 10.99 38.77L10.99 38.77L10.99 61.14Q12.12 61.42 13.41 61.52Q14.70 61.61 16.07 61.61L16.07 61.61Q21.61 61.61 24.41 58.60Q27.20 55.59 27.20 49.67ZM31.11 49.67L31.11 49.67Q31.11 53.53 30.05 56.37Q28.99 59.21 27.04 61.09Q25.09 62.97 22.32 63.89Q19.54 64.81 16.11 64.81L16.11 64.81Q14.61 64.81 12.73 64.69Q10.85 64.57 9.16 64.05L9.16 64.05Q7.18 63.44 7.18 61.89L7.18 61.89L7.18 37.73Q7.18 36.98 7.56 36.58Q7.93 36.18 8.73 35.95L8.73 35.95Q10.19 35.48 12.02 35.34Q13.86 35.20 15.69 35.20L15.69 35.20Q19.12 35.20 21.96 36.11Q24.81 37.03 26.83 38.84Q28.85 40.65 29.98 43.35Q31.11 46.05 31.11 49.67ZM54.09 56.86L54.09 56.86Q53.76 57.10 53.22 57.29Q52.68 57.47 52.02 57.47L52.02 57.47Q51.27 57.47 50.68 57.24Q50.09 57.00 49.86 56.49L49.86 56.49Q47.32 51.22 45.49 46.85Q43.65 42.48 42.53 39.61L42.53 39.61L42.34 39.61Q42.20 43.14 42.03 46.17Q41.87 49.20 41.68 52.09Q41.49 54.98 41.30 57.94Q41.12 60.90 40.93 64.29L40.93 64.29Q40.65 64.38 40.20 64.48Q39.75 64.57 39.24 64.57L39.24 64.57Q38.20 64.57 37.78 64.15Q37.36 63.72 37.36 62.93L37.36 62.93Q37.36 62.46 37.43 60.90Q37.50 59.35 37.64 57.14Q37.78 54.94 37.94 52.26Q38.11 49.58 38.32 46.80Q38.53 44.03 38.74 41.35Q38.95 38.67 39.14 36.46L39.14 36.46Q39.52 36.14 40.22 35.85Q40.93 35.57 41.82 35.57L41.82 35.57Q43.98 35.57 44.83 37.31L44.83 37.31Q45.72 39.14 46.64 41.19Q47.56 43.23 48.47 45.35Q49.39 47.46 50.26 49.53Q51.13 51.60 51.93 53.48L51.93 53.48L52.11 53.48Q53.15 50.99 54.18 48.57Q55.22 46.15 56.20 43.89Q57.19 41.63 58.08 39.66Q58.98 37.69 59.68 36.04L59.68 36.04Q60.10 35.81 60.76 35.69Q61.42 35.57 61.98 35.57L61.98 35.57Q64.19 35.57 64.52 37.08L64.52 37.08Q64.71 37.92 64.95 39.87Q65.18 41.82 65.42 44.36Q65.65 46.90 65.86 49.81Q66.07 52.73 66.26 55.43Q66.45 58.13 66.59 60.41Q66.73 62.69 66.83 64.01L66.83 64.01Q65.98 64.57 64.85 64.57L64.85 64.57Q64.15 64.57 63.61 64.22Q63.07 63.87 62.97 62.93L62.97 62.93Q62.74 59.49 62.55 56.11Q62.36 52.73 62.20 49.67Q62.03 46.62 61.89 44.05Q61.75 41.49 61.66 39.71L61.66 39.71L61.47 39.71Q60.95 41.02 60.27 42.67Q59.59 44.31 58.67 46.38Q57.75 48.45 56.63 51.06Q55.50 53.67 54.09 56.86ZM76.55 64.29L76.55 64.29Q75.61 64.29 75.05 63.72Q74.49 63.16 74.49 62.22L74.49 62.22L74.49 37.78Q74.49 36.84 75.05 36.28Q75.61 35.71 76.55 35.71L76.55 35.71L92.16 35.71Q92.30 35.95 92.44 36.35Q92.58 36.75 92.58 37.22L92.58 37.22Q92.58 38.02 92.21 38.49Q91.83 38.96 91.12 38.96L91.12 38.96L78.29 38.96L78.29 48.03L90.70 48.03Q90.84 48.26 90.98 48.66Q91.12 49.06 91.12 49.53L91.12 49.53Q91.12 50.33 90.75 50.78Q90.37 51.22 89.67 51.22L89.67 51.22L78.29 51.22L78.29 61.09L92.39 61.09Q92.53 61.33 92.68 61.70Q92.82 62.08 92.82 62.60L92.82 62.60Q92.82 63.40 92.44 63.84Q92.06 64.29 91.36 64.29L91.36 64.29L76.55 64.29Z" fill="#fff"></path></svg>